<svg width="24" height="4" viewBox="0 0 24 4" fill="none" xmlns="http://www.w3.org/2000/svg">
<path d="M2.548 3.28C3.444 3.28 4.2 2.524 4.2 1.628C4.2 0.76 3.444 0.00399977 2.548 0.00399977C1.652 0.00399977 0.924 0.76 0.924 1.628C0.924 2.524 1.652 3.28 2.548 3.28ZM12.1074 3.28C13.0034 3.28 13.7594 2.524 13.7594 1.628C13.7594 0.76 13.0034 0.00399977 12.1074 0.00399977C11.2114 0.00399977 10.4834 0.76 10.4834 1.628C10.4834 2.524 11.2114 3.28 12.1074 3.28ZM21.6667 3.28C22.5627 3.28 23.3187 2.524 23.3187 1.628C23.3187 0.76 22.5627 0.00399977 21.6667 0.00399977C20.7707 0.00399977 20.0427 0.76 20.0427 1.628C20.0427 2.524 20.7707 3.28 21.6667 3.28Z" fill="black"/>
</svg>
