<svg width="107" height="107" viewBox="0 0 107 107" fill="none" xmlns="http://www.w3.org/2000/svg">
<path d="M53.4999 0.583344C24.2899 0.583344 0.583252 24.29 0.583252 53.5C0.583252 82.71 24.2899 106.417 53.4999 106.417C82.7099 106.417 106.417 82.71 106.417 53.5C106.417 24.29 82.7099 0.583344 53.4999 0.583344ZM53.4999 16.4583C62.2841 16.4583 69.3749 23.5492 69.3749 32.3333C69.3749 41.1175 62.2841 48.2083 53.4999 48.2083C44.7158 48.2083 37.6249 41.1175 37.6249 32.3333C37.6249 23.5492 44.7158 16.4583 53.4999 16.4583ZM53.4999 91.6C40.2708 91.6 28.5762 84.8267 21.7499 74.5608C21.9087 64.0304 42.9166 58.2625 53.4999 58.2625C64.0303 58.2625 85.0912 64.0304 85.2499 74.5608C78.4237 84.8267 66.7291 91.6 53.4999 91.6Z" fill="#ECF7F8"/>
</svg>
