<svg width="25" height="25" viewBox="0 0 25 25" fill="none" xmlns="http://www.w3.org/2000/svg">
<g clip-path="url(#clip0)">
<path d="M18.6489 0.20507L15.4589 0.199951C11.875 0.199951 9.55889 2.57616 9.55889 6.25398V9.04529H6.35146C6.0743 9.04529 5.84985 9.26999 5.84985 9.54715V13.5914C5.84985 13.8686 6.07455 14.093 6.35146 14.093H9.55889V24.2981C9.55889 24.5753 9.78334 24.7997 10.0605 24.7997H14.2453C14.5225 24.7997 14.7469 24.575 14.7469 24.2981V14.093H18.4971C18.7743 14.093 18.9987 13.8686 18.9987 13.5914L19.0003 9.54715C19.0003 9.41407 18.9473 9.28663 18.8534 9.19245C18.7595 9.09827 18.6315 9.04529 18.4984 9.04529H14.7469V6.67906C14.7469 5.54176 15.0179 4.9644 16.4994 4.9644L18.6484 4.96364C18.9253 4.96364 19.1497 4.73894 19.1497 4.46203V0.706672C19.1497 0.430023 18.9255 0.205581 18.6489 0.20507Z" fill="#FF7227"/>
</g>
<defs>
<clipPath id="clip0">
<rect x="0.199951" y="0.199951" width="24.6" height="24.5997" fill="white"/>
</clipPath>
</defs>
</svg>
