<svg width="54" height="63" viewBox="0 0 54 63" fill="none" xmlns="http://www.w3.org/2000/svg">
<path d="M42.75 38.25C42.1533 38.25 41.581 38.4871 41.159 38.909C40.7371 39.331 40.5 39.9033 40.5 40.5V41.355L37.17 38.025C35.9942 36.8585 34.405 36.2039 32.7488 36.2039C31.0925 36.2039 29.5033 36.8585 28.3275 38.025L26.7525 39.6L21.1725 34.02C19.9803 32.8851 18.3973 32.2522 16.7513 32.2522C15.1052 32.2522 13.5222 32.8851 12.33 34.02L9 37.35V24.75C9 24.1533 9.23705 23.581 9.65901 23.159C10.081 22.7371 10.6533 22.5 11.25 22.5H27C27.5967 22.5 28.169 22.263 28.591 21.841C29.0129 21.419 29.25 20.8467 29.25 20.25C29.25 19.6533 29.0129 19.081 28.591 18.659C28.169 18.2371 27.5967 18 27 18H11.25C9.45979 18 7.7429 18.7112 6.47703 19.977C5.21116 21.2429 4.5 22.9598 4.5 24.75V51.75C4.5 53.5402 5.21116 55.2571 6.47703 56.523C7.7429 57.7889 9.45979 58.5 11.25 58.5H38.25C40.0402 58.5 41.7571 57.7889 43.023 56.523C44.2888 55.2571 45 53.5402 45 51.75V40.5C45 39.9033 44.7629 39.331 44.341 38.909C43.919 38.4871 43.3467 38.25 42.75 38.25ZM11.25 54C10.6533 54 10.081 53.763 9.65901 53.341C9.23705 52.919 9 52.3467 9 51.75V43.7175L15.525 37.1925C15.8556 36.8775 16.2946 36.7018 16.7513 36.7018C17.2079 36.7018 17.6469 36.8775 17.9775 37.1925L25.11 44.325L34.785 54H11.25ZM40.5 51.75C40.4968 52.1807 40.3547 52.5989 40.095 52.9425L29.9475 42.75L31.5225 41.175C31.6838 41.0104 31.8764 40.8796 32.0888 40.7903C32.3013 40.701 32.5295 40.655 32.76 40.655C32.9905 40.655 33.2187 40.701 33.4312 40.7903C33.6437 40.8796 33.8362 41.0104 33.9975 41.175L40.5 47.7225V51.75ZM51.0975 18.6525L44.3475 11.9025C44.1335 11.6977 43.8812 11.5371 43.605 11.43C43.0572 11.205 42.4428 11.205 41.895 11.43C41.6188 11.5371 41.3665 11.6977 41.1525 11.9025L34.4025 18.6525C33.9788 19.0762 33.7408 19.6508 33.7408 20.25C33.7408 20.8492 33.9788 21.4238 34.4025 21.8475C34.8262 22.2712 35.4008 22.5092 36 22.5092C36.5992 22.5092 37.1738 22.2712 37.5975 21.8475L40.5 18.9225V31.5C40.5 32.0967 40.7371 32.669 41.159 33.091C41.581 33.513 42.1533 33.75 42.75 33.75C43.3467 33.75 43.919 33.513 44.341 33.091C44.7629 32.669 45 32.0967 45 31.5V18.9225L47.9025 21.8475C48.1117 22.0584 48.3605 22.2258 48.6347 22.34C48.9089 22.4542 49.203 22.5131 49.5 22.5131C49.797 22.5131 50.0911 22.4542 50.3653 22.34C50.6395 22.2258 50.8883 22.0584 51.0975 21.8475C51.3084 21.6383 51.4758 21.3895 51.59 21.1153C51.7042 20.8411 51.763 20.547 51.763 20.25C51.763 19.953 51.7042 19.6589 51.59 19.3847C51.4758 19.1105 51.3084 18.8617 51.0975 18.6525Z" fill="#F52093"/>
<circle cx="15.5" cy="16.5" r="14" fill="white" stroke="#EB278F"/>
<path d="M12.964 14.844H6.448V19.812H12.964V26.292H18.076V19.812H24.592V14.844H18.076V8.364H12.964V14.844Z" fill="#EB278F"/>
</svg>
