<svg width="26" height="25" viewBox="0 0 26 25" fill="none" xmlns="http://www.w3.org/2000/svg">
<g clip-path="url(#clip0)">
<path d="M17.5125 0.199951H8.28748C4.04244 0.199951 0.599976 3.64241 0.599976 7.88745V17.1125C0.599976 21.3575 4.04244 24.8 8.28748 24.8H17.5125C21.7575 24.8 25.2 21.3575 25.2 17.1125V7.88745C25.2 3.64241 21.7575 0.199951 17.5125 0.199951ZM22.8937 17.1125C22.8937 20.0798 20.4799 22.4937 17.5125 22.4937H8.28748C5.3201 22.4937 2.90623 20.0798 2.90623 17.1125V7.88745C2.90623 4.92008 5.3201 2.5062 8.28748 2.5062H17.5125C20.4799 2.5062 22.8937 4.92008 22.8937 7.88745V17.1125Z" fill="#FF7227"/>
<path d="M12.9 6.34985C9.50366 6.34985 6.75 9.10352 6.75 12.4999C6.75 15.8962 9.50366 18.6499 12.9 18.6499C16.2963 18.6499 19.05 15.8962 19.05 12.4999C19.05 9.10352 16.2963 6.34985 12.9 6.34985ZM12.9 16.3436C10.7813 16.3436 9.05625 14.6185 9.05625 12.4999C9.05625 10.3796 10.7813 8.6561 12.9 8.6561C15.0187 8.6561 16.7438 10.3796 16.7438 12.4999C16.7438 14.6185 15.0187 16.3436 12.9 16.3436Z" fill="#FF7227"/>
<path d="M19.5113 6.70806C19.9638 6.70806 20.3307 6.34117 20.3307 5.88858C20.3307 5.43599 19.9638 5.06909 19.5113 5.06909C19.0587 5.06909 18.6918 5.43599 18.6918 5.88858C18.6918 6.34117 19.0587 6.70806 19.5113 6.70806Z" fill="#FF7227"/>
</g>
<defs>
<clipPath id="clip0">
<rect x="0.599976" y="0.199951" width="24.6" height="24.6" fill="white"/>
</clipPath>
</defs>
</svg>
