<svg width="25" height="26" viewBox="0 0 25 26" fill="none" xmlns="http://www.w3.org/2000/svg">
<g clip-path="url(#clip0)">
<path d="M6.12628 8.65405H1.18779C0.968612 8.65405 0.791016 8.83173 0.791016 9.05083V24.9161C0.791016 25.1353 0.968612 25.3129 1.18779 25.3129H6.12628C6.34546 25.3129 6.52305 25.1353 6.52305 24.9161V9.05083C6.52305 8.83173 6.34546 8.65405 6.12628 8.65405Z" fill="#FF7227"/>
<path d="M3.65881 0.767334C1.8619 0.767334 0.400024 2.22762 0.400024 4.02255C0.400024 5.81827 1.8619 7.27911 3.65881 7.27911C5.45429 7.27911 6.91498 5.81819 6.91498 4.02255C6.91506 2.22762 5.45429 0.767334 3.65881 0.767334Z" fill="#FF7227"/>
<path d="M18.6876 8.25952C16.7041 8.25952 15.2379 9.11219 14.3486 10.081V9.05061C14.3486 8.83151 14.171 8.65384 13.9518 8.65384H9.22234C9.00316 8.65384 8.82556 8.83151 8.82556 9.05061V24.9159C8.82556 25.135 9.00316 25.3126 9.22234 25.3126H14.15C14.3692 25.3126 14.5468 25.135 14.5468 24.9159V17.0662C14.5468 14.4211 15.2653 13.3906 17.1092 13.3906C19.1173 13.3906 19.2769 15.0426 19.2769 17.2023V24.916C19.2769 25.1351 19.4545 25.3127 19.6737 25.3127H24.6032C24.8224 25.3127 25 25.1351 25 24.916V16.2136C25 12.2804 24.25 8.25952 18.6876 8.25952Z" fill="#FF7227"/>
</g>
<defs>
<clipPath id="clip0">
<rect x="0.400024" y="0.73999" width="24.6" height="24.6" fill="white"/>
</clipPath>
</defs>
</svg>
