<svg width="15" height="16" viewBox="0 0 15 16" fill="none" xmlns="http://www.w3.org/2000/svg">
<path d="M9.09167 5.00833L7.91667 3.83333L3.75 8L7.91667 12.1667L9.09167 10.9917L6.94167 8.83333H15L15 7.16667L6.94167 7.16667L9.09167 5.00833ZM1.66667 15.5L13.3333 15.5C14.2583 15.5 15 14.75 15 13.8333V10.5H13.3333V13.8333L1.66667 13.8333L1.66667 2.16667L13.3333 2.16667V5.5H15V2.16667C15 1.25 14.2583 0.5 13.3333 0.5L1.66667 0.5C0.75 0.5 0 1.25 0 2.16667L0 13.8333C0 14.75 0.75 15.5 1.66667 15.5Z" fill="black"/>
</svg>
