<svg width="121" height="127" viewBox="0 0 121 127" fill="none" xmlns="http://www.w3.org/2000/svg">
<path d="M102.088 26.0317H98.8239V18.767C98.8239 8.4228 90.401 0 80.0568 0H40.6539C30.3097 0 21.8869 8.4228 21.8869 18.767V26.0317H18.9126C8.56831 26.0317 0.145508 34.4545 0.145508 44.7988V75.0682C0.145508 85.4124 8.56831 93.8352 18.9126 93.8352H21.8605V117.63C21.8605 122.789 26.0719 127 31.2309 127H89.4272C94.5861 127 98.7975 122.789 98.7975 117.63V93.8352H102.088C112.432 93.8352 120.855 85.4124 120.855 75.0682V44.7988C120.855 34.4545 112.432 26.0317 102.088 26.0317ZM28.9673 18.767C28.9673 12.3447 34.2052 7.10674 40.6276 7.10674H80.0042C86.4265 7.10674 91.6645 12.3447 91.6645 18.767V26.0317H28.9673V18.767ZM91.6908 117.682C91.6908 118.919 90.6643 119.946 89.4272 119.946H31.2309C29.9938 119.946 28.9673 118.919 28.9673 117.682V78.4373H91.6908V117.682ZM113.748 75.0945C113.748 81.5169 108.51 86.7548 102.088 86.7548H98.8239V78.4373H103.509C105.483 78.4373 107.062 76.858 107.062 74.8839C107.062 72.9098 105.483 71.3306 103.509 71.3306H16.6489C14.6748 71.3306 13.0956 72.9098 13.0956 74.8839C13.0956 76.858 14.6748 78.4373 16.6489 78.4373H21.8869V86.7548H18.9126C12.4902 86.7548 7.25224 81.5169 7.25224 75.0945V44.8251C7.25224 38.4027 12.4902 33.1648 18.9126 33.1648H102.088C108.51 33.1648 113.748 38.4027 113.748 44.8251V75.0945Z" fill="#ECF7F8"/>
<path d="M37.5744 95.9146H82.8206C84.7947 95.9146 86.374 94.3353 86.374 92.3612C86.374 90.3871 84.7947 88.8079 82.8206 88.8079H37.5744C35.6003 88.8079 34.021 90.3871 34.021 92.3612C34.021 94.3353 35.6266 95.9146 37.5744 95.9146Z" fill="#ECF7F8"/>
<path d="M83.1101 103.337H37.8375C35.8635 103.337 34.2842 104.916 34.2842 106.891C34.2842 108.865 35.8635 110.444 37.8375 110.444H83.0838C85.0579 110.444 86.6371 108.865 86.6371 106.891C86.6371 104.916 85.0579 103.337 83.1101 103.337Z" fill="#ECF7F8"/>
<path d="M102.009 39.982H94.7968C92.8227 39.982 91.2434 41.5612 91.2434 43.5353C91.2434 45.5094 92.8227 47.0887 94.7968 47.0887H102.009C103.983 47.0887 105.562 45.5094 105.562 43.5353C105.562 41.5612 103.983 39.982 102.009 39.982Z" fill="#ECF7F8"/>
</svg>
