<svg width="127" height="27" viewBox="0 0 127 27" fill="none" xmlns="http://www.w3.org/2000/svg">
<path d="M42.56 23V2.776C42.8587 2.712 43.7013 2.62667 45.088 2.52C46.4747 2.41333 47.5307 2.36 48.256 2.36C53.4187 2.36 56 4.472 56 8.696C56 11.32 55.104 13.24 53.312 14.456C52.1173 15.288 50.7093 15.704 49.088 15.704C47.808 15.704 47.0293 15.6187 46.752 15.448V23H42.56ZM46.752 5.944V12.056C47.3067 12.2693 48 12.376 48.832 12.376C49.6853 12.376 50.3573 12.0773 50.848 11.48C51.3387 10.8613 51.584 10.0187 51.584 8.952C51.584 6.79733 50.6347 5.72 48.736 5.72C47.648 5.72 46.9867 5.79467 46.752 5.944ZM61.2812 8.472L61.6652 9.752C61.8786 9.304 62.2839 8.92 62.8812 8.6C63.4999 8.25867 64.1292 8.088 64.7692 8.088C66.6892 8.088 68.1186 8.99467 69.0573 10.808L65.6652 12.664C64.9612 11.8533 64.2146 11.448 63.4253 11.448C62.6999 11.448 62.1666 11.8213 61.8252 12.568V23H57.8572V8.472H61.2812ZM73.1925 8.472V23H69.1285V8.472H73.1925ZM68.6485 4.76C68.6485 4.07733 68.8832 3.49067 69.3525 3C69.8432 2.488 70.4192 2.232 71.0805 2.232C71.7845 2.232 72.3818 2.47733 72.8725 2.968C73.3845 3.45867 73.6405 4.056 73.6405 4.76C73.6405 5.50667 73.3952 6.11467 72.9045 6.584C72.4352 7.05333 71.8272 7.288 71.0805 7.288C70.3765 7.288 69.7898 7.05333 69.3205 6.584C68.8725 6.09333 68.6485 5.48533 68.6485 4.76ZM84.839 11.704H80.679V18.904C80.679 19.9707 81.031 20.504 81.735 20.504C82.375 20.504 83.175 20.2267 84.135 19.672L85.479 21.72C83.9643 22.9147 82.2897 23.512 80.455 23.512C77.895 23.512 76.615 22.104 76.615 19.288V11.704H74.599V8.472H76.647V5.88C77.7137 5.304 79.0683 4.58933 80.711 3.736V8.472H84.839V11.704ZM99.9972 17.048H90.0132C90.0986 18.0293 90.4932 18.8507 91.1972 19.512C91.9226 20.152 92.7759 20.472 93.7572 20.472C95.1439 20.472 96.5946 20.0453 98.1092 19.192L99.1332 21.336C97.5972 22.7013 95.6772 23.384 93.3732 23.384C90.8986 23.384 88.9679 22.68 87.5812 21.272C86.2586 19.9493 85.5972 18.1253 85.5972 15.8C85.5972 13.5173 86.3439 11.6293 87.8372 10.136C89.1812 8.77067 90.8879 8.088 92.9572 8.088C95.2612 8.088 97.0532 8.86667 98.3332 10.424C99.4426 11.7467 99.9972 13.464 99.9972 15.576V17.048ZM89.7892 14.072H95.9652C95.8586 11.9813 94.8452 10.936 92.9252 10.936C91.0692 10.936 90.0239 11.9813 89.7892 14.072ZM102.185 2.776C103.23 2.49867 105.076 2.36 107.721 2.36C111.369 2.36 114.153 3.42667 116.073 5.56C117.716 7.37333 118.537 9.74133 118.537 12.664C118.537 16.312 117.492 19.0533 115.401 20.888C113.502 22.552 110.857 23.384 107.465 23.384C105.332 23.384 103.572 23.2453 102.185 22.968V2.776ZM106.377 19.928C106.804 20.0347 107.337 20.088 107.977 20.088C112.094 20.088 114.153 17.656 114.153 12.792C114.153 10.3813 113.47 8.536 112.105 7.256C110.996 6.232 109.588 5.72 107.881 5.72C107.39 5.72 106.889 5.77333 106.377 5.88V19.928ZM124.293 8.472V23H120.229V8.472H124.293ZM119.749 4.76C119.749 4.07733 119.983 3.49067 120.453 3C120.943 2.488 121.519 2.232 122.181 2.232C122.885 2.232 123.482 2.47733 123.973 2.968C124.485 3.45867 124.741 4.056 124.741 4.76C124.741 5.50667 124.495 6.11467 124.005 6.584C123.535 7.05333 122.927 7.288 122.181 7.288C121.477 7.288 120.89 7.05333 120.421 6.584C119.973 6.09333 119.749 5.48533 119.749 4.76Z" fill="#195154"/>
<g clip-path="url(#clip0)">
<path fill-rule="evenodd" clip-rule="evenodd" d="M2.88915 12.8402H3.49135V8.1527H2.82224C-0.857837 8.01683 -1.12548 12.7723 2.82224 12.8402H2.88915ZM26.5086 12.8402H27.1108C31.0585 12.7723 30.9247 8.22063 27.1108 8.1527H26.5086V12.8402Z" fill="#201E1E"/>
<path fill-rule="evenodd" clip-rule="evenodd" d="M2.88889 4.68764H27.1105C31.0582 4.61971 30.9244 0.0680755 27.1105 0.000140753H2.88889C-0.791186 -0.135729 -1.05883 4.61971 2.88889 4.68764Z" fill="#201E1E"/>
<path fill-rule="evenodd" clip-rule="evenodd" d="M14.3973 4.61942H10.8511L10.918 24.9999H14.2635L14.3973 4.61942Z" fill="#F066A6"/>
<path fill-rule="evenodd" clip-rule="evenodd" d="M19.2154 4.61942H15.6692L15.7361 24.9999H19.0816L19.2154 4.61942Z" fill="#FED05A"/>
<path fill-rule="evenodd" clip-rule="evenodd" d="M9.58019 4.61942H6.03394L6.10085 24.9999H9.44637L9.58019 4.61942Z" fill="#3CC6F5"/>
<path fill-rule="evenodd" clip-rule="evenodd" d="M23.9659 4.55176L20.4866 4.61969L20.6204 25.0001H23.8321L23.9659 4.55176Z" fill="#201E1E"/>
</g>
<defs>
<clipPath id="clip0">
<rect width="30" height="25" fill="white"/>
</clipPath>
</defs>
</svg>
