<svg width="148" height="30" viewBox="0 0 148 30" fill="none" xmlns="http://www.w3.org/2000/svg">
<g clip-path="url(#clip0)">
<path fill-rule="evenodd" clip-rule="evenodd" d="M2.72306 14.6574H3.29065V10.0366H2.66C-0.808583 9.90269 -1.06084 14.5904 2.66 14.6574H2.72306ZM24.985 14.6574H25.5526C29.2735 14.5904 29.1473 10.1036 25.5526 10.0366H24.985V14.6574Z" fill="#201E1E"/>
<path fill-rule="evenodd" clip-rule="evenodd" d="M2.72274 6.62089H25.5523C29.2732 6.55392 29.147 2.0671 25.5523 2.00013H2.72274C-0.745839 1.8662 -0.9981 6.55392 2.72274 6.62089Z" fill="#201E1E"/>
<path fill-rule="evenodd" clip-rule="evenodd" d="M13.57 6.55371H10.2275L10.2906 26.644H13.4439L13.57 6.55371Z" fill="#F066A6"/>
<path fill-rule="evenodd" clip-rule="evenodd" d="M18.111 6.55371H14.7686L14.8316 26.644H17.9849L18.111 6.55371Z" fill="#FED05A"/>
<path fill-rule="evenodd" clip-rule="evenodd" d="M9.02946 6.55371H5.68701L5.75008 26.644H8.90333L9.02946 6.55371Z" fill="#3CC6F5"/>
<path fill-rule="evenodd" clip-rule="evenodd" d="M22.5885 6.48694L19.3091 6.55391L19.4352 26.6441H22.4623L22.5885 6.48694Z" fill="#201E1E"/>
</g>
<path d="M52.76 12.88V12.84C52.76 9.98 50.74 8 47.4 8H41.68V22H44.76V17.8H47.1C50.24 17.8 52.76 16.12 52.76 12.88ZM49.64 12.94C49.64 14.14 48.74 15.06 47.2 15.06H44.76V10.78H47.14C48.68 10.78 49.64 11.52 49.64 12.9V12.94ZM61.1794 14.26V11.08C59.3794 11 58.3794 11.96 57.7594 13.44V11.28H54.7194V22H57.7594V18.04C57.7594 15.48 58.9994 14.26 61.0194 14.26H61.1794ZM66.3388 10.1V7.4H63.1388V10.1H66.3388ZM66.2588 22V11.28H63.2188V22H66.2588ZM75.1339 21.56V19.12C74.6939 19.36 74.1939 19.5 73.6339 19.5C72.9539 19.5 72.6539 19.16 72.6539 18.46V13.88H75.1739V11.28H72.6539V8.54H69.6139V11.28H68.3339V13.88H69.6139V18.96C69.6139 21.44 70.8739 22.18 72.7339 22.18C73.7539 22.18 74.4939 21.94 75.1339 21.56ZM87.1217 16.94V16.9C87.1217 13.86 85.4817 11.08 81.9017 11.08C78.7817 11.08 76.6017 13.6 76.6017 16.66V16.7C76.6017 19.98 78.9817 22.24 82.2017 22.24C84.1417 22.24 85.5817 21.48 86.5817 20.24L84.8417 18.7C84.0017 19.48 83.2617 19.8 82.2417 19.8C80.8817 19.8 79.9217 19.08 79.6217 17.7H87.0817C87.1017 17.42 87.1217 17.24 87.1217 16.94ZM84.1617 15.8H79.5817C79.8217 14.42 80.6417 13.52 81.9017 13.52C83.1817 13.52 83.9817 14.44 84.1617 15.8ZM100.167 22V7.4H97.1273V12.68C96.4073 11.82 95.4073 11.08 93.7873 11.08C91.2473 11.08 88.9073 13.04 88.9073 16.62V16.66C88.9073 20.24 91.2873 22.2 93.7873 22.2C95.3673 22.2 96.3873 21.46 97.1273 20.46V22H100.167ZM97.1673 16.66C97.1673 18.44 95.9873 19.62 94.5673 19.62C93.1473 19.62 91.9473 18.44 91.9473 16.66V16.62C91.9473 14.82 93.1473 13.66 94.5673 13.66C95.9873 13.66 97.1673 14.84 97.1673 16.62V16.66ZM106.143 10.1V7.4H102.943V10.1H106.143ZM106.063 22V11.28H103.023V22H106.063Z" fill="#195154"/>
<defs>
<clipPath id="clip0">
<rect y="2" width="28.2759" height="24.644" fill="white"/>
</clipPath>
</defs>
</svg>
