<svg width="157" height="25" viewBox="0 0 157 25" fill="none" xmlns="http://www.w3.org/2000/svg">
<path d="M40.56 23V2.776C40.8587 2.712 41.7013 2.62667 43.088 2.52C44.4747 2.41333 45.5307 2.36 46.256 2.36C51.4187 2.36 54 4.472 54 8.696C54 11.32 53.104 13.24 51.312 14.456C50.1173 15.288 48.7093 15.704 47.088 15.704C45.808 15.704 45.0293 15.6187 44.752 15.448V23H40.56ZM44.752 5.944V12.056C45.3067 12.2693 46 12.376 46.832 12.376C47.6853 12.376 48.3573 12.0773 48.848 11.48C49.3387 10.8613 49.584 10.0187 49.584 8.952C49.584 6.79733 48.6347 5.72 46.736 5.72C45.648 5.72 44.9867 5.79467 44.752 5.944ZM59.2812 8.472L59.6652 9.752C59.8786 9.304 60.2839 8.92 60.8812 8.6C61.4999 8.25867 62.1292 8.088 62.7692 8.088C64.6892 8.088 66.1186 8.99467 67.0573 10.808L63.6652 12.664C62.9612 11.8533 62.2146 11.448 61.4253 11.448C60.6999 11.448 60.1666 11.8213 59.8252 12.568V23H55.8572V8.472H59.2812ZM71.1925 8.472V23H67.1285V8.472H71.1925ZM66.6485 4.76C66.6485 4.07733 66.8832 3.49067 67.3525 3C67.8432 2.488 68.4192 2.232 69.0805 2.232C69.7845 2.232 70.3818 2.47733 70.8725 2.968C71.3845 3.45867 71.6405 4.056 71.6405 4.76C71.6405 5.50667 71.3952 6.11467 70.9045 6.584C70.4352 7.05333 69.8272 7.288 69.0805 7.288C68.3765 7.288 67.7898 7.05333 67.3205 6.584C66.8725 6.09333 66.6485 5.48533 66.6485 4.76ZM82.839 11.704H78.679V18.904C78.679 19.9707 79.031 20.504 79.735 20.504C80.375 20.504 81.175 20.2267 82.135 19.672L83.479 21.72C81.9643 22.9147 80.2897 23.512 78.455 23.512C75.895 23.512 74.615 22.104 74.615 19.288V11.704H72.599V8.472H74.647V5.88C75.7137 5.304 77.0683 4.58933 78.711 3.736V8.472H82.839V11.704ZM97.9972 17.048H88.0132C88.0986 18.0293 88.4932 18.8507 89.1972 19.512C89.9226 20.152 90.7759 20.472 91.7572 20.472C93.1439 20.472 94.5946 20.0453 96.1092 19.192L97.1332 21.336C95.5972 22.7013 93.6772 23.384 91.3732 23.384C88.8986 23.384 86.9679 22.68 85.5812 21.272C84.2586 19.9493 83.5972 18.1253 83.5972 15.8C83.5972 13.5173 84.3439 11.6293 85.8372 10.136C87.1812 8.77067 88.8879 8.088 90.9572 8.088C93.2612 8.088 95.0532 8.86667 96.3332 10.424C97.4426 11.7467 97.9972 13.464 97.9972 15.576V17.048ZM87.7892 14.072H93.9652C93.8586 11.9813 92.8452 10.936 90.9252 10.936C89.0692 10.936 88.0239 11.9813 87.7892 14.072ZM110.169 23L109.593 21.464C109.252 22.0187 108.697 22.4773 107.929 22.84C107.161 23.2027 106.372 23.384 105.561 23.384C103.278 23.384 101.54 22.6267 100.345 21.112C99.3423 19.8533 98.841 18.232 98.841 16.248C98.841 13.4533 99.6517 11.2987 101.273 9.784C102.489 8.65333 103.95 8.088 105.657 8.088C107.129 8.088 108.366 8.49333 109.369 9.304V4.664L113.401 2.424V23H110.169ZM109.369 17.464V13.4C109.22 12.696 108.878 12.12 108.345 11.672C107.833 11.2027 107.225 10.968 106.521 10.968C105.433 10.968 104.569 11.3947 103.929 12.248C103.289 13.1013 102.969 14.2533 102.969 15.704C102.969 18.8827 104.004 20.472 106.073 20.472C106.841 20.472 107.556 20.1733 108.217 19.576C108.878 18.9573 109.262 18.2533 109.369 17.464ZM120.043 8.472V23H115.979V8.472H120.043ZM115.499 4.76C115.499 4.07733 115.733 3.49067 116.203 3C116.693 2.488 117.269 2.232 117.931 2.232C118.635 2.232 119.232 2.47733 119.723 2.968C120.235 3.45867 120.491 4.056 120.491 4.76C120.491 5.50667 120.245 6.11467 119.755 6.584C119.285 7.05333 118.677 7.288 117.931 7.288C117.227 7.288 116.64 7.05333 116.171 6.584C115.723 6.09333 115.499 5.48533 115.499 4.76Z" fill="white"/>
<g clip-path="url(#clip0)">
<path fill-rule="evenodd" clip-rule="evenodd" d="M2.88915 12.8402H3.49135V8.1527H2.82224C-0.857837 8.01683 -1.12548 12.7723 2.82224 12.8402H2.88915ZM26.5086 12.8402H27.1108C31.0585 12.7723 30.9247 8.22063 27.1108 8.1527H26.5086V12.8402Z" fill="#201E1E"/>
<path fill-rule="evenodd" clip-rule="evenodd" d="M2.88889 4.68764H27.1105C31.0582 4.61971 30.9244 0.0680755 27.1105 0.000140753H2.88889C-0.791186 -0.135729 -1.05883 4.61971 2.88889 4.68764Z" fill="#201E1E"/>
<path fill-rule="evenodd" clip-rule="evenodd" d="M14.3973 4.61942H10.8511L10.918 24.9999H14.2635L14.3973 4.61942Z" fill="#F066A6"/>
<path fill-rule="evenodd" clip-rule="evenodd" d="M19.2154 4.61942H15.6692L15.7361 24.9999H19.0816L19.2154 4.61942Z" fill="#FED05A"/>
<path fill-rule="evenodd" clip-rule="evenodd" d="M9.58007 4.61942H6.03381L6.10072 24.9999H9.44625L9.58007 4.61942Z" fill="#3CC6F5"/>
<path fill-rule="evenodd" clip-rule="evenodd" d="M23.9658 4.55176L20.4865 4.61969L20.6203 25.0001H23.832L23.9658 4.55176Z" fill="#201E1E"/>
</g>
<defs>
<clipPath id="clip0">
<rect width="30" height="25" fill="white"/>
</clipPath>
</defs>
</svg>
