<svg width="14" height="17" viewBox="0 0 14 17" fill="none" xmlns="http://www.w3.org/2000/svg">
<path d="M7.00004 16.3333C7.91671 16.3333 8.66671 15.5833 8.66671 14.6666H5.33337C5.33337 15.5833 6.08337 16.3333 7.00004 16.3333ZM12 11.3333V7.16665C12 4.60831 10.6417 2.46665 8.25004 1.89998V1.33331C8.25004 0.641646 7.69171 0.083313 7.00004 0.083313C6.30837 0.083313 5.75004 0.641646 5.75004 1.33331V1.89998C3.36671 2.46665 2.00004 4.59998 2.00004 7.16665V11.3333L0.333374 13V13.8333H13.6667V13L12 11.3333ZM10.3334 12.1666H3.66671V7.16665C3.66671 5.09998 4.92504 3.41665 7.00004 3.41665C9.07504 3.41665 10.3334 5.09998 10.3334 7.16665V12.1666Z" fill="black"/>
</svg>
