<svg width="127" height="127" viewBox="0 0 127 127" fill="none" xmlns="http://www.w3.org/2000/svg">
<path d="M117.305 55.5625H111.127C110.775 54.2885 110.018 53.1636 108.97 52.3581C107.922 51.5526 106.64 51.1101 105.318 51.0977H98.7227V34.9687C98.7301 34.667 98.6572 34.3687 98.5113 34.1044C98.3655 33.8402 98.152 33.6195 97.8927 33.465L51.3648 6.59112C51.1026 6.43869 50.8048 6.3584 50.5015 6.3584C50.1982 6.3584 49.9003 6.43869 49.6382 6.59112L3.09588 33.465C2.8325 33.6177 2.61401 33.837 2.46242 34.101C2.31084 34.365 2.23151 34.6643 2.23243 34.9687V88.7167C2.23244 89.0215 2.31267 89.3209 2.46506 89.5848C2.61746 89.8488 2.83665 90.068 3.10059 90.2204L49.6476 117.094C49.9115 117.247 50.211 117.327 50.5157 117.327C50.8284 117.327 51.1359 117.247 51.4087 117.094L75.9024 102.966V113.179C75.8998 114.152 76.0902 115.115 76.4624 116.013C76.8347 116.911 77.3814 117.727 78.071 118.413C78.7605 119.098 79.5792 119.64 80.4797 120.007C81.3801 120.374 82.3444 120.559 83.3167 120.551H117.305C118.28 120.56 119.247 120.376 120.151 120.01C121.054 119.644 121.876 119.103 122.57 118.418C123.264 117.732 123.815 116.917 124.192 116.018C124.569 115.119 124.765 114.154 124.768 113.179V63.0491C124.766 61.0681 123.981 59.1682 122.582 57.7652C121.184 56.3621 119.286 55.5701 117.305 55.5625ZM107.9 57.2589C107.9 57.9274 107.635 58.5684 107.162 59.0411C106.69 59.5138 106.048 59.7793 105.38 59.7793H95.2899C94.6215 59.7793 93.9804 59.5138 93.5077 59.0411C93.0351 58.5684 92.7695 57.9274 92.7695 57.2589V57.0907C92.7695 56.4223 93.0351 55.7812 93.5077 55.3085C93.9804 54.8359 94.6215 54.5703 95.2899 54.5703H105.38C106.048 54.5703 106.69 54.8359 107.162 55.3085C107.635 55.7812 107.9 56.4223 107.9 57.0907V57.2589ZM50.5157 59.8339L30.2583 48.1382L73.3296 23.2713L93.5881 34.9669L50.5157 59.8339ZM50.5157 10.1005L69.8569 21.2671L26.7856 46.1335L7.44464 34.9669L50.5157 10.1005ZM5.70509 37.9723L48.8652 62.8412V112.583L5.70509 87.7141V37.9723ZM52.3379 112.583V62.8412L95.25 37.9723V51.0977H95.3038C93.9821 51.1101 92.7004 51.5525 91.6524 52.3581C90.6044 53.1636 89.8472 54.2884 89.4953 55.5625H83.3167C81.3407 55.5721 79.4495 56.3662 78.059 57.7702C76.6686 59.1742 75.8928 61.0731 75.9024 63.0491V98.9566L52.3379 112.583ZM121.295 113.178C121.293 113.697 121.187 114.211 120.985 114.689C120.782 115.167 120.487 115.6 120.116 115.963C119.745 116.326 119.305 116.611 118.823 116.803C118.34 116.994 117.824 117.088 117.305 117.078H83.3167C82.8003 117.087 82.2874 116.992 81.808 116.8C81.3287 116.608 80.8926 116.321 80.5254 115.958C80.1582 115.595 79.8672 115.162 79.6697 114.685C79.4722 114.208 79.372 113.696 79.375 113.179V63.0491C79.3698 62.5266 79.4676 62.0081 79.663 61.5235C79.8583 61.0389 80.1473 60.5975 80.5134 60.2247C80.8796 59.8518 81.3156 59.5549 81.7966 59.3508C82.2777 59.1467 82.7942 59.0394 83.3167 59.0352H89.563C89.9354 60.2642 90.6961 61.3395 91.7311 62.0997C92.7661 62.8599 94.0197 63.2642 95.3038 63.252H105.318C106.602 63.2643 107.856 62.86 108.891 62.0997C109.926 61.3395 110.686 60.2642 111.059 59.0352H117.305C118.366 59.0419 119.38 59.4677 120.128 60.2197C120.875 60.9717 121.295 61.9888 121.295 63.0491V113.178Z" fill="#E7F2FC"/>
<path d="M85.3155 80.6152H87.133C87.5935 80.6152 88.0351 80.4323 88.3607 80.1067C88.6863 79.781 88.8693 79.3394 88.8693 78.8789C88.8693 78.4184 88.6863 77.9768 88.3607 77.6511C88.0351 77.3255 87.5935 77.1426 87.133 77.1426H87.0645V72.4297H91.8535C91.9625 72.7788 92.183 73.0825 92.4812 73.2943C92.7794 73.5061 93.1388 73.6143 93.5043 73.6022C93.9654 73.6035 94.4081 73.4218 94.7354 73.097C95.0627 72.7722 95.2477 72.3309 95.25 71.8698V70.7015C95.2461 70.2382 95.0596 69.7952 94.731 69.4686C94.4024 69.1419 93.9582 68.9581 93.4949 68.957H85.3155C85.0877 68.9582 84.8624 69.0043 84.6525 69.0926C84.4425 69.181 84.252 69.3098 84.0919 69.4719C83.9318 69.6339 83.8053 69.8259 83.7194 70.0369C83.6336 70.2479 83.5903 70.4738 83.5918 70.7015V78.8809C83.5905 79.1081 83.634 79.3334 83.72 79.5438C83.806 79.7541 83.9328 79.9454 84.093 80.1065C84.2532 80.2677 84.4436 80.3956 84.6535 80.4829C84.8633 80.5702 85.0883 80.6152 85.3155 80.6152Z" fill="#E7F2FC"/>
<path d="M95.25 86.5684C95.25 86.1079 95.0671 85.6662 94.7414 85.3406C94.4158 85.015 93.9742 84.832 93.5137 84.832H85.3281C84.8676 84.832 84.426 85.015 84.1004 85.3406C83.7747 85.6662 83.5918 86.1079 83.5918 86.5684V94.7539C83.5918 95.2144 83.7747 95.656 84.1004 95.9817C84.426 96.3073 84.8676 96.4902 85.3281 96.4902H93.5137C93.9742 96.4902 94.4158 96.3073 94.7414 95.9817C95.0671 95.656 95.25 95.2144 95.25 94.7539V86.5684ZM87.0645 88.3047H91.7773V93.0176H87.0645V88.3047Z" fill="#E7F2FC"/>
<path d="M87.1333 108.893H87.0646V104.18H91.7598C91.7688 104.636 91.9564 105.071 92.2823 105.391C92.6082 105.711 93.0466 105.89 93.5033 105.891C93.96 105.891 94.3987 105.713 94.7252 105.394C95.0518 105.074 95.2402 104.64 95.2501 104.183V102.51C95.2483 102.041 95.0643 101.59 94.7369 101.254C94.4094 100.917 93.9642 100.721 93.4949 100.707H85.3156C84.8496 100.723 84.4083 100.92 84.0862 101.257C83.764 101.594 83.5866 102.044 83.5919 102.51V110.689C83.5917 110.914 83.6365 111.136 83.7236 111.342C83.8108 111.549 83.9385 111.736 84.0992 111.892C84.26 112.048 84.4505 112.171 84.6594 112.252C84.8684 112.333 85.0915 112.372 85.3156 112.365H87.1333C87.5938 112.365 88.0354 112.182 88.361 111.857C88.6867 111.531 88.8696 111.089 88.8696 110.629C88.8696 110.168 88.6867 109.727 88.361 109.401C88.0354 109.076 87.5938 108.893 87.1333 108.893Z" fill="#E7F2FC"/>
<path d="M97.4925 71.0883L92.4075 76.1733L90.8607 74.6262C90.6995 74.465 90.5081 74.3371 90.2974 74.2498C90.0867 74.1625 89.8609 74.1176 89.6329 74.1176C89.4049 74.1176 89.1791 74.1625 88.9684 74.2498C88.7577 74.3371 88.5663 74.465 88.4051 74.6262C88.2438 74.7874 88.1159 74.9789 88.0287 75.1895C87.9414 75.4002 87.8965 75.626 87.8965 75.854C87.8965 76.0821 87.9414 76.3079 88.0287 76.5185C88.1159 76.7292 88.2438 76.9206 88.4051 77.0819L91.18 79.8565C91.3412 80.0178 91.5326 80.1457 91.7433 80.233C91.954 80.3202 92.1798 80.3651 92.4078 80.3651C92.6358 80.3651 92.8616 80.3202 93.0723 80.233C93.283 80.1457 93.4744 80.0178 93.6356 79.8565L99.9489 73.5432C100.275 73.2176 100.458 72.7759 100.458 72.3154C100.458 71.8549 100.275 71.4132 99.9489 71.0876C99.6233 70.7619 99.1816 70.579 98.7211 70.579C98.2606 70.579 97.8189 70.7619 97.4933 71.0876L97.4925 71.0883Z" fill="#E7F2FC"/>
<path d="M97.4925 103.148L92.4075 108.233L90.8607 106.686C90.6995 106.525 90.5081 106.397 90.2974 106.31C90.0867 106.222 89.8609 106.177 89.6329 106.177C89.4049 106.177 89.1791 106.222 88.9684 106.31C88.7577 106.397 88.5663 106.525 88.4051 106.686C88.2438 106.847 88.1159 107.039 88.0287 107.249C87.9414 107.46 87.8965 107.686 87.8965 107.914C87.8965 108.142 87.9414 108.368 88.0287 108.578C88.1159 108.789 88.2438 108.98 88.4051 109.142L91.18 111.916C91.3412 112.078 91.5326 112.205 91.7433 112.293C91.954 112.38 92.1798 112.425 92.4078 112.425C92.6358 112.425 92.8616 112.38 93.0723 112.293C93.283 112.205 93.4744 112.078 93.6356 111.916L99.9489 105.603C100.275 105.277 100.458 104.836 100.458 104.375C100.458 103.915 100.275 103.473 99.9489 103.147C99.6233 102.822 99.1816 102.639 98.7211 102.639C98.2606 102.639 97.8189 102.822 97.4933 103.147L97.4925 103.148Z" fill="#E7F2FC"/>
<path d="M115.306 73.1738H104.401C103.94 73.1738 103.498 73.3568 103.173 73.6824C102.847 74.008 102.664 74.4497 102.664 74.9102C102.664 75.3707 102.847 75.8123 103.173 76.1379C103.498 76.4635 103.94 76.6465 104.401 76.6465H115.306C115.767 76.6465 116.208 76.4635 116.534 76.1379C116.86 75.8123 117.043 75.3707 117.043 74.9102C117.043 74.4497 116.86 74.008 116.534 73.6824C116.208 73.3568 115.767 73.1738 115.306 73.1738Z" fill="#E7F2FC"/>
<path d="M115.306 89.0488H104.401C103.94 89.0488 103.498 89.2318 103.173 89.5574C102.847 89.883 102.664 90.3247 102.664 90.7852C102.664 91.2457 102.847 91.6873 103.173 92.0129C103.498 92.3385 103.94 92.5215 104.401 92.5215H115.306C115.767 92.5215 116.208 92.3385 116.534 92.0129C116.86 91.6873 117.043 91.2457 117.043 90.7852C117.043 90.3247 116.86 89.883 116.534 89.5574C116.208 89.2318 115.767 89.0488 115.306 89.0488Z" fill="#E7F2FC"/>
<path d="M115.306 104.924H104.401C103.94 104.924 103.498 105.107 103.173 105.432C102.847 105.758 102.664 106.2 102.664 106.66C102.664 107.121 102.847 107.562 103.173 107.888C103.498 108.214 103.94 108.396 104.401 108.396H115.306C115.767 108.396 116.208 108.214 116.534 107.888C116.86 107.562 117.043 107.121 117.043 106.66C117.043 106.2 116.86 105.758 116.534 105.432C116.208 105.107 115.767 104.924 115.306 104.924Z" fill="#E7F2FC"/>
</svg>
