<svg width="25" height="25" viewBox="0 0 25 25" fill="none" xmlns="http://www.w3.org/2000/svg">
<g clip-path="url(#clip0)">
<path d="M24.6 4.87232C23.6852 5.2736 22.7104 5.53959 21.6941 5.66874C22.7396 5.04452 23.5376 4.06359 23.9127 2.88125C22.938 3.46243 21.8617 3.87294 20.7147 4.10203C19.7892 3.11649 18.47 2.5061 17.0309 2.5061C14.2388 2.5061 11.991 4.77238 11.991 7.55064C11.991 7.95039 12.0248 8.33477 12.1078 8.70069C7.91505 8.4962 4.20506 6.48669 1.71277 3.42553C1.27766 4.18044 1.02244 5.04452 1.02244 5.9747C1.02244 7.7213 1.92188 9.26957 3.26257 10.1659C2.45231 10.1506 1.65743 9.91532 0.984 9.54478C0.984 9.56015 0.984 9.58014 0.984 9.60013C0.984 12.0509 2.73214 14.0866 5.02455 14.5555C4.61404 14.6677 4.16663 14.7215 3.7023 14.7215C3.37943 14.7215 3.05347 14.7031 2.74751 14.6354C3.40095 16.6327 5.25518 18.101 7.45995 18.1486C5.7441 19.4909 3.56546 20.2996 1.20694 20.2996C0.79335 20.2996 0.396675 20.2811 0 20.2304C2.23399 21.671 4.88156 22.4936 7.7367 22.4936C17.017 22.4936 22.0908 14.8061 22.0908 8.14258C22.0908 7.91964 22.0831 7.70439 22.0723 7.49068C23.0733 6.78035 23.9143 5.89322 24.6 4.87232Z" fill="#FF7227"/>
</g>
<defs>
<clipPath id="clip0">
<rect y="0.199951" width="24.6" height="24.6" fill="white"/>
</clipPath>
</defs>
</svg>
