<svg width="79" height="79" viewBox="0 0 79 79" fill="none" xmlns="http://www.w3.org/2000/svg">
<path d="M60.794 77.457H4.62988C2.92552 77.457 1.54395 76.0755 1.54395 74.3711V4.62891C1.54395 2.92454 2.92552 1.54297 4.62988 1.54297H60.794C62.4983 1.54297 63.8799 2.92454 63.8799 4.62891V74.3711C63.8799 76.0755 62.4983 77.457 60.794 77.457Z" fill="white"/>
<path d="M32.7124 35.1797C39.7001 35.1797 45.3647 29.515 45.3647 22.5273C45.3647 15.5396 39.7001 9.875 32.7124 9.875C25.7247 9.875 20.0601 15.5396 20.0601 22.5273C20.0601 29.515 25.7247 35.1797 32.7124 35.1797Z" fill="#FF7227"/>
<path d="M36.7236 20.9072V21.9102C36.7236 24.1257 34.9275 25.9219 32.7119 25.9219C30.4964 25.9219 28.7002 24.1257 28.7002 21.9102V20.9072C28.7002 18.6917 30.4964 16.8955 32.7119 16.8955C34.9275 16.8955 36.7236 18.6917 36.7236 20.9072Z" fill="#FFCDAC"/>
<path d="M32.7119 25.9219C28.7958 25.9219 25.45 28.3547 24.0972 31.7902C26.3561 33.8921 29.3829 35.1797 32.7119 35.1797C36.0408 35.1797 39.0677 33.8921 41.3266 31.7902C39.9737 28.3547 36.6279 25.9219 32.7119 25.9219Z" fill="#195154"/>
<path d="M67.3619 24.7785L68.2435 23.2515C69.6071 20.8899 72.6266 20.0808 74.9883 21.4442C77.3498 22.8077 78.159 25.8273 76.7956 28.189L57.3787 61.82L48.8267 56.8825L57.2022 42.3755L67.3619 24.7785Z" fill="#FF7227"/>
<path d="M74.9883 21.4442C72.6268 20.0807 69.6071 20.8898 68.2436 23.2515L65.9512 27.222L74.5032 32.1595L76.7956 28.189C78.159 25.8274 77.3499 22.8077 74.9883 21.4442Z" fill="#FF7227"/>
<path d="M57.3788 61.82L47.46 69.125L48.8267 56.8825L57.3788 61.82Z" fill="#195154"/>
<path d="M63.8804 61.4608C63.0283 61.4608 62.3374 62.1516 62.3374 63.0037V74.3711C62.3374 75.2219 61.6452 75.9141 60.7944 75.9141H4.63037C3.77958 75.9141 3.0874 75.2219 3.0874 74.3711V4.62891C3.0874 3.77811 3.77958 3.08594 4.63037 3.08594H60.7944C61.6452 3.08594 62.3374 3.77811 62.3374 4.62891V21.4087C62.3374 22.2609 63.0283 22.9517 63.8804 22.9517C64.7324 22.9517 65.4233 22.2609 65.4233 21.4087V4.62891C65.4233 2.07653 63.3468 0 60.7944 0H4.63037C2.07799 0 0.00146484 2.07653 0.00146484 4.62891V74.3711C0.00146484 76.9235 2.07799 79 4.63037 79H60.7944C63.3468 79 65.4233 76.9235 65.4233 74.3711V63.0037C65.4233 62.1516 64.7324 61.4608 63.8804 61.4608Z" fill="#195154"/>
<path d="M46.9072 22.5273C46.9072 14.7 40.5392 8.33203 32.7119 8.33203C24.8846 8.33203 18.5166 14.7 18.5166 22.5273C18.5166 26.588 20.2308 30.2553 22.973 32.845C23.0244 32.9 23.079 32.952 23.1387 32.9993C25.6647 35.3105 29.0264 36.7225 32.7118 36.7225C36.3971 36.7225 39.7588 35.3104 42.2848 32.9993C42.3445 32.952 42.3991 32.8998 42.4505 32.845C45.193 30.2553 46.9072 26.588 46.9072 22.5273ZM32.7119 11.418C38.8377 11.418 43.8213 16.4016 43.8213 22.5273C43.8213 24.991 43.0142 27.2689 41.6519 29.1132C40.5139 27.4255 38.9369 26.1129 37.1058 25.3025C37.8326 24.3633 38.2666 23.1868 38.2666 21.9102V20.9072C38.2666 17.8443 35.7749 15.3525 32.7119 15.3525C29.649 15.3525 27.1572 17.8443 27.1572 20.9072V21.9102C27.1572 23.1868 27.5913 24.3633 28.318 25.3025C26.487 26.1129 24.9099 27.4255 23.772 29.1132C22.4097 27.2689 21.6025 24.991 21.6025 22.5273C21.6025 16.4016 26.5862 11.418 32.7119 11.418ZM30.2432 21.9102V20.9072C30.2432 19.546 31.3507 18.4385 32.7119 18.4385C34.0731 18.4385 35.1807 19.546 35.1807 20.9072V21.9102C35.1807 23.2714 34.0731 24.3789 32.7119 24.3789C31.3507 24.3789 30.2432 23.2714 30.2432 21.9102ZM26.0014 31.3735C27.3575 28.9688 29.8881 27.4648 32.7119 27.4648C35.5357 27.4648 38.0663 28.9688 39.4224 31.3735C37.5565 32.7924 35.2314 33.6367 32.7119 33.6367C30.1924 33.6367 27.8671 32.7924 26.0014 31.3735Z" fill="#195154"/>
<path d="M41.0439 67.582H32.7119C31.8599 67.582 31.1689 68.2728 31.1689 69.125C31.1689 69.9772 31.8599 70.668 32.7119 70.668H41.0439C41.896 70.668 42.5869 69.9772 42.5869 69.125C42.5869 68.2728 41.896 67.582 41.0439 67.582Z" fill="#195154"/>
<path d="M41.0439 58.9414H19.1338C18.2818 58.9414 17.5908 59.6322 17.5908 60.4844C17.5908 61.3366 18.2818 62.0273 19.1338 62.0273H41.0439C41.896 62.0273 42.5869 61.3366 42.5869 60.4844C42.5869 59.6322 41.896 58.9414 41.0439 58.9414Z" fill="#195154"/>
<path d="M41.0439 50.3008H19.1338C18.2818 50.3008 17.5908 50.9916 17.5908 51.8438C17.5908 52.6959 18.2818 53.3867 19.1338 53.3867H41.0439C41.896 53.3867 42.5869 52.6959 42.5869 51.8438C42.5869 50.9916 41.896 50.3008 41.0439 50.3008Z" fill="#195154"/>
<path d="M13.6347 42.1122C13.3479 41.8253 12.9498 41.6602 12.5425 41.6602C12.1365 41.6602 11.7384 41.8253 11.4516 42.1122C11.1646 42.3992 10.9995 42.7973 10.9995 43.2031C10.9995 43.6089 11.1645 44.007 11.4516 44.294C11.7401 44.581 12.1365 44.7461 12.5425 44.7461C12.9498 44.7461 13.3464 44.581 13.6347 44.294C13.9217 44.007 14.087 43.6089 14.087 43.2031C14.087 42.7973 13.9219 42.3992 13.6347 42.1122Z" fill="#195154"/>
<path d="M13.6347 50.7529C13.3464 50.4659 12.9498 50.3008 12.5425 50.3008C12.1365 50.3008 11.7401 50.4659 11.4516 50.7529C11.1646 51.0399 10.9995 51.4379 10.9995 51.8438C10.9995 52.2496 11.1645 52.6476 11.4516 52.9346C11.7401 53.2216 12.1365 53.3867 12.5425 53.3867C12.9498 53.3867 13.3464 53.2216 13.6347 52.9346C13.9217 52.6476 14.087 52.2496 14.087 51.8438C14.087 51.4379 13.9219 51.0399 13.6347 50.7529Z" fill="#195154"/>
<path d="M12.5425 58.9414C12.1365 58.9414 11.7401 59.1065 11.4516 59.3935C11.1646 59.6805 10.9995 60.0786 10.9995 60.4844C10.9995 60.8902 11.1645 61.2883 11.4516 61.5753C11.7384 61.8622 12.1365 62.0273 12.5425 62.0273C12.9498 62.0273 13.3479 61.8622 13.6347 61.5753C13.9217 61.2883 14.087 60.8902 14.087 60.4844C14.087 60.0786 13.9219 59.6805 13.6347 59.3935C13.3464 59.1065 12.9498 58.9414 12.5425 58.9414Z" fill="#195154"/>
<path d="M41.0439 41.6602H19.1338C18.2818 41.6602 17.5908 42.3509 17.5908 43.2031C17.5908 44.0553 18.2818 44.7461 19.1338 44.7461H41.0439C41.896 44.7461 42.5869 44.0553 42.5869 43.2031C42.5869 42.3509 41.896 41.6602 41.0439 41.6602Z" fill="#195154"/>
<path d="M75.76 20.108C74.261 19.2425 72.5147 19.0126 70.8424 19.4605C69.1704 19.9086 67.7728 20.981 66.9075 22.48L47.4905 56.111C47.3842 56.2954 47.3169 56.4998 47.2933 56.7113L45.9265 68.9539C45.8586 69.563 46.1577 70.1548 46.6884 70.4614C46.9281 70.5996 47.1942 70.6681 47.4598 70.6681C47.7826 70.6681 48.1041 70.5671 48.3749 70.3675L58.2937 63.0625C58.4652 62.9363 58.6086 62.776 58.715 62.5916L78.1318 28.9606C79.9186 25.866 78.8546 21.8947 75.76 20.108ZM50.0984 59.3984L54.5641 61.9767L49.3846 65.7913L50.0984 59.3984ZM56.814 59.7123L50.9345 56.3177L66.5162 29.3297L72.3957 32.7242L56.814 59.7123ZM75.4594 27.4175L73.9385 30.0518L68.059 26.6573L69.5799 24.0229C70.0333 23.2377 70.7652 22.6761 71.641 22.4414C72.5171 22.2066 73.4318 22.3272 74.2169 22.7806C75.0021 23.2339 75.5637 23.9659 75.7984 24.8416C76.0331 25.7174 75.9127 26.6323 75.4594 27.4175Z" fill="#195154"/>
</svg>
